<?xml version="1.0" encoding="UTF-8"?>
<svg id="_图层_1" data-name="图层 1" xmlns="http://www.w3.org/2000/svg" xmlns:xlink="http://www.w3.org/1999/xlink" viewBox="0 0 108.53 124.39">
  <defs>
    <style>
      .cls-1 {
        fill: #fff;
        stroke: #56c0ce;
        stroke-width: 2px;
      }

      .cls-1, .cls-2, .cls-3 {
        stroke-miterlimit: 10;
      }

      .cls-2 {
        stroke: url(#_未命名的渐变_175-2);
      }

      .cls-2, .cls-3, .cls-4 {
        fill: none;
        stroke-width: 6px;
      }

      .cls-3 {
        stroke: url(#_未命名的渐变_175-3);
      }

      .cls-4 {
        stroke: url(#_未命名的渐变_175);
        stroke-linecap: round;
        stroke-linejoin: round;
      }
    </style>
    <linearGradient id="_未命名的渐变_175" data-name="未命名的渐变 175" x1="54.26" y1="0" x2="54.26" y2="124.39" gradientUnits="userSpaceOnUse">
      <stop offset="0" stop-color="#70c6c8"/>
      <stop offset="1" stop-color="#d94472"/>
    </linearGradient>
    <linearGradient id="_未命名的渐变_175-2" data-name="未命名的渐变 175" x1="40.96" y1="31.13" x2="40.96" y2="93.39" xlink:href="#_未命名的渐变_175"/>
    <linearGradient id="_未命名的渐变_175-3" data-name="未命名的渐变 175" x1="80.24" y1="31.13" x2="80.24" y2="93.39" xlink:href="#_未命名的渐变_175"/>
  </defs>
  <polygon class="cls-4" points="3 32.6 3 91.79 54.26 121.39 105.52 91.79 105.53 32.6 54.26 3 3 32.6"/>
  <g>
    <path class="cls-2" d="M54.43,83.3l-2.6-6.83h-22.12l-2.6,6.98c-1.01,2.72-1.88,4.56-2.6,5.51-.72.95-1.89,1.43-3.53,1.43-1.39,0-2.61-.51-3.67-1.52-1.06-1.01-1.6-2.17-1.6-3.45,0-.74.12-1.51.37-2.3.25-.79.66-1.89,1.22-3.3l13.92-35.33c.4-1.01.87-2.23,1.43-3.66.56-1.42,1.15-2.6,1.78-3.54.63-.94,1.46-1.7,2.49-2.28,1.03-.58,2.29-.87,3.8-.87s2.81.29,3.84.87c1.03.58,1.86,1.33,2.49,2.25.63.92,1.16,1.9,1.6,2.95.43,1.05.98,2.46,1.65,4.21l14.21,35.11c1.11,2.67,1.67,4.61,1.67,5.83s-.53,2.42-1.58,3.47c-1.05,1.05-2.32,1.58-3.8,1.58-.87,0-1.61-.16-2.23-.46-.62-.31-1.14-.73-1.56-1.26-.42-.53-.87-1.35-1.35-2.45s-.9-2.07-1.24-2.91ZM32.61,68.2h16.25l-8.2-22.45-8.05,22.45Z"/>
    <path class="cls-3" d="M74.73,83.68v-42.86c0-2.23.51-3.9,1.52-5.01,1.01-1.11,2.33-1.67,3.93-1.67s3,.55,4.03,1.65c1.03,1.1,1.54,2.78,1.54,5.03v42.86c0,2.25-.51,3.93-1.54,5.05-1.03,1.11-2.37,1.67-4.03,1.67s-2.89-.56-3.92-1.69c-1.03-1.13-1.54-2.8-1.54-5.03Z"/>
  </g>
  <circle class="cls-1" cx="4" cy="32.6" r="2.89"/>
</svg>