<?xml version="1.0" encoding="UTF-8"?>
<svg id="Layer_1" data-name="Layer 1" xmlns="http://www.w3.org/2000/svg" xmlns:xlink="http://www.w3.org/1999/xlink" viewBox="0 0 150.78 175.68">
  <defs>
    <style>
      .cls-1 {
        stroke: url(#_未命名的渐变_173);
      }

      .cls-1, .cls-2, .cls-3 {
        fill: none;
      }

      .cls-1, .cls-2, .cls-4, .cls-5 {
        stroke-miterlimit: 10;
      }

      .cls-1, .cls-2, .cls-5 {
        stroke-width: 2px;
      }

      .cls-2 {
        stroke: url(#_未命名的渐变_173-2);
      }

      .cls-3 {
        stroke: url(#_未命名的渐变_166);
        stroke-linecap: round;
        stroke-linejoin: round;
        stroke-width: 3px;
      }

      .cls-4 {
        stroke: #818181;
        stroke-width: .25px;
      }

      .cls-4, .cls-6 {
        fill: #818181;
      }

      .cls-5 {
        fill: #fff;
        stroke: #00e1eb;
      }
    </style>
    <linearGradient id="_未命名的渐变_166" data-name="未命名的渐变 166" x1="75.53" y1="0" x2="75.53" y2="121.39" gradientUnits="userSpaceOnUse">
      <stop offset="0" stop-color="#15ffee"/>
      <stop offset="1" stop-color="#e84378"/>
    </linearGradient>
    <linearGradient id="_未命名的渐变_173" data-name="未命名的渐变 173" x1="62.22" y1="31.63" x2="62.22" y2="89.89" gradientUnits="userSpaceOnUse">
      <stop offset="0" stop-color="#15ffee"/>
      <stop offset="1" stop-color="#e84378"/>
    </linearGradient>
    <linearGradient id="_未命名的渐变_173-2" data-name="未命名的渐变 173" x1="101.51" x2="101.51" xlink:href="#_未命名的渐变_173"/>
  </defs>
  <polygon class="cls-3" points="24.26 31.1 24.26 90.29 75.52 119.89 126.79 90.29 126.79 31.1 75.53 1.5 24.26 31.1"/>
  <g>
    <path class="cls-1" d="M75.7,81.8l-2.6-6.83h-22.12l-2.6,6.98c-1.01,2.72-1.88,4.56-2.6,5.51-.72.95-1.89,1.43-3.53,1.43-1.39,0-2.61-.51-3.67-1.52-1.06-1.01-1.6-2.17-1.6-3.45,0-.74.12-1.51.37-2.3.25-.79.66-1.89,1.22-3.3l13.92-35.33c.4-1.01.87-2.23,1.43-3.66.56-1.42,1.15-2.6,1.78-3.54.63-.94,1.46-1.7,2.49-2.28,1.03-.58,2.29-.87,3.8-.87s2.81.29,3.84.87c1.03.58,1.86,1.33,2.49,2.25.63.92,1.16,1.9,1.6,2.95.43,1.05.98,2.46,1.65,4.21l14.21,35.11c1.11,2.67,1.67,4.61,1.67,5.83s-.53,2.42-1.58,3.47c-1.05,1.05-2.32,1.58-3.8,1.58-.87,0-1.61-.16-2.23-.46-.62-.31-1.14-.73-1.56-1.26-.42-.53-.87-1.35-1.35-2.45s-.9-2.07-1.24-2.91ZM53.87,66.7h16.25l-8.2-22.45-8.05,22.45Z"/>
    <path class="cls-2" d="M95.99,82.18v-42.86c0-2.23.51-3.9,1.52-5.01,1.01-1.11,2.33-1.67,3.93-1.67s3,.55,4.03,1.65c1.03,1.1,1.54,2.78,1.54,5.03v42.86c0,2.25-.51,3.93-1.54,5.05-1.03,1.11-2.37,1.67-4.03,1.67s-2.89-.56-3.92-1.69c-1.03-1.13-1.54-2.8-1.54-5.03Z"/>
  </g>
  <circle class="cls-5" cx="25.26" cy="31.1" r="2.89"/>
  <g>
    <path class="cls-6" d="M13.49,150.24h-7.43l-1.63,5.04H0l6.88-19.82c.27-.79,1.01-1.31,1.85-1.31h2.42c.83,0,1.57.53,1.84,1.31l6.88,19.83h-4.79l-1.6-5.04ZM7.02,146.82h5.54l-2.62-8.29h-.26l-2.65,8.29Z"/>
    <path class="cls-6" d="M23.48,155.28v-21.14h4.42v21.14h-4.42Z"/>
    <path class="cls-6" d="M40.77,155.28v-21.14h3.69l9.73,13.17h.26v-13.17h4.23v21.14h-3.66l-9.76-13.23h-.26v13.23h-4.23Z"/>
    <path class="cls-6" d="M75.79,150.24h-7.43l-1.63,5.04h-4.44l6.88-19.83c.27-.78,1.01-1.31,1.84-1.31h2.42c.84,0,1.58.53,1.85,1.32l6.88,19.82h-4.79l-1.6-5.04ZM69.32,146.82h5.54l-2.62-8.29h-.26l-2.65,8.29Z"/>
    <path class="cls-6" d="M90.91,155.28v-17.36h-6.34v-3.78h17.11v3.78h-6.34v17.36h-4.42Z"/>
    <path class="cls-6" d="M105.59,155.28v-14.96h4.42v14.96h-4.42Z"/>
    <path class="cls-6" d="M119.97,152.88l-6.34-18.74h5l4.8,16.16h.26l4.72-16.16h4.76l-6.27,18.82c-.46,1.39-1.76,2.32-3.22,2.32h-.37c-1.51,0-2.86-.96-3.34-2.4Z"/>
    <path class="cls-6" d="M150.78,155.28h-14v-21.14h14v3.78h-9.58v4.94h9.04v3.5h-9.04v5.14h9.58v3.78Z"/>
  </g>
  <g>
    <path class="cls-6" d="M24.79,175.47h-1.4l4.18-10.45h1.32l4.16,10.45h-1.47l-1.2-3.22h-4.39l-1.2,3.22ZM28.21,166.52h-.05l-1.79,4.73h3.62l-1.79-4.73Z"/>
    <path class="cls-6" d="M35.14,165.02h4.16c1.09,0,1.98.29,2.65.89s1.01,1.37,1.01,2.33-.34,1.74-1.01,2.33-1.55.88-2.65.88h-2.8v4.02h-1.37v-10.45ZM36.51,166.12v4.23h1.82c.36,0,.68-.01.95-.04.28-.03.54-.07.8-.12.25-.05.47-.13.64-.23s.33-.23.46-.39c.14-.16.23-.35.29-.57.06-.22.09-.48.09-.77,0-.67-.2-1.2-.6-1.57-.4-.37-.97-.56-1.7-.56h-2.75Z"/>
    <path class="cls-6" d="M45.31,165.02h4.16c1.09,0,1.98.29,2.65.89s1.01,1.37,1.01,2.33-.34,1.74-1.01,2.33-1.55.88-2.65.88h-2.8v4.02h-1.37v-10.45ZM46.68,166.12v4.23h1.82c.36,0,.68-.01.95-.04.28-.03.54-.07.8-.12.25-.05.47-.13.64-.23.17-.1.33-.23.46-.39.14-.16.23-.35.29-.57.06-.22.09-.48.09-.77,0-.67-.2-1.2-.6-1.57-.4-.37-.97-.56-1.7-.56h-2.75Z"/>
    <path class="cls-6" d="M62.25,174.36v1.11h-6.78v-10.45h1.37v9.34h5.41Z"/>
    <path class="cls-6" d="M65.65,175.47h-1.37v-10.45h1.37v10.45Z"/>
    <path class="cls-6" d="M69.83,169.51v1.53c0,1.18.28,2.07.85,2.65s1.35.88,2.35.88c.9,0,1.59-.21,2.09-.64s.75-.94.75-1.56h1.34c0,.37-.08.74-.25,1.12s-.42.73-.74,1.07c-.33.34-.77.61-1.33.81s-1.2.31-1.92.31c-1.39,0-2.48-.4-3.28-1.19-.8-.79-1.2-1.94-1.2-3.43v-1.58c0-1.48.41-2.63,1.22-3.45.81-.82,1.91-1.23,3.28-1.23.69,0,1.31.1,1.86.31s1,.48,1.33.82c.34.34.59.72.77,1.12s.27.82.27,1.25h-1.34c0-.62-.26-1.18-.78-1.66-.52-.48-1.23-.72-2.12-.72-.95,0-1.72.31-2.29.93-.57.62-.86,1.51-.86,2.67Z"/>
    <path class="cls-6" d="M80.17,175.47h-1.4l4.18-10.45h1.32l4.16,10.45h-1.47l-1.2-3.22h-4.39l-1.2,3.22ZM83.6,166.52h-.05l-1.79,4.73h3.62l-1.79-4.73Z"/>
    <path class="cls-6" d="M94.21,175.47h-1.35v-9.35h-3.56v-1.1h8.47v1.1h-3.55v9.35Z"/>
    <path class="cls-6" d="M101.17,175.47h-1.37v-10.45h1.37v10.45Z"/>
    <path class="cls-6" d="M104,171.08v-1.57c0-1.46.42-2.61,1.25-3.45.83-.84,1.95-1.26,3.35-1.26s2.51.42,3.34,1.25c.83.83,1.25,1.99,1.25,3.46v1.57c0,1.46-.42,2.6-1.25,3.4-.84.8-1.96,1.21-3.36,1.21s-2.53-.4-3.34-1.21c-.82-.8-1.23-1.94-1.23-3.4ZM105.35,169.51v1.57c0,.58.08,1.1.25,1.55.17.46.4.82.69,1.1.29.28.63.49,1.02.63s.81.21,1.28.21.89-.07,1.28-.21.74-.35,1.04-.63c.3-.28.53-.65.69-1.1.16-.45.24-.97.24-1.55v-1.57c0-1.15-.3-2.04-.9-2.67-.6-.62-1.38-.94-2.35-.94s-1.73.31-2.33.93c-.6.62-.9,1.51-.9,2.67Z"/>
    <path class="cls-6" d="M117.39,175.47h-1.37v-10.45h1.37l5.94,8.35h.06v-8.35h1.35v10.45h-1.35l-5.95-8.35h-.05v8.35Z"/>
  </g>
  <path class="cls-6" d="M105.59,138.13v-3.99h4.42v4.04l-4.42-.05Z"/>
  <line class="cls-4" x1="107.8" y1="134.14" x2="107.8" y2="132.82"/>
  <line class="cls-4" x1="108.6" y1="134.14" x2="108.6" y2="132.82"/>
  <line class="cls-4" x1="109.37" y1="134.14" x2="109.37" y2="132.82"/>
  <line class="cls-4" x1="106.23" y1="134.14" x2="106.23" y2="132.82"/>
  <line class="cls-4" x1="107" y1="134.14" x2="107" y2="132.82"/>
  <line class="cls-4" x1="107.75" y1="139.45" x2="107.75" y2="138.13"/>
  <line class="cls-4" x1="108.55" y1="139.45" x2="108.55" y2="138.13"/>
  <line class="cls-4" x1="109.32" y1="139.45" x2="109.32" y2="138.13"/>
  <line class="cls-4" x1="106.18" y1="139.45" x2="106.18" y2="138.13"/>
  <line class="cls-4" x1="106.95" y1="139.45" x2="106.95" y2="138.13"/>
  <line class="cls-4" x1="105.59" y1="136.16" x2="104.27" y2="136.16"/>
  <line class="cls-4" x1="105.59" y1="135.36" x2="104.27" y2="135.36"/>
  <line class="cls-4" x1="105.59" y1="134.59" x2="104.27" y2="134.59"/>
  <line class="cls-4" x1="105.59" y1="137.73" x2="104.27" y2="137.73"/>
  <line class="cls-4" x1="105.59" y1="136.96" x2="104.27" y2="136.96"/>
  <line class="cls-4" x1="110.01" y1="136.16" x2="111.33" y2="136.16"/>
  <line class="cls-4" x1="110.01" y1="136.96" x2="111.33" y2="136.96"/>
  <line class="cls-4" x1="110.01" y1="137.73" x2="111.33" y2="137.73"/>
  <line class="cls-4" x1="110.01" y1="134.59" x2="111.33" y2="134.59"/>
  <line class="cls-4" x1="110.01" y1="135.36" x2="111.33" y2="135.36"/>
</svg>